<?xml version="1.0" standalone="no"?>
<svg version="1.0" xmlns="http://www.w3.org/2000/svg"
 width="512.000000pt" height="512.000000pt" viewBox="0 0 512.000000 512.000000"
 preserveAspectRatio="xMidYMid meet" fill='#fff'>

<g transform="translate(0.000000,512.000000) scale(0.100000,-0.100000)"
fill="#000000" stroke="none">
<path fill='#fff' d="M2250 4804 c-162 -18 -230 -29 -328 -50 -621 -137 -1173 -565 -1465
-1136 -161 -313 -239 -642 -239 -998 0 -601 230 -1145 663 -1567 170 -166 344
-290 554 -393 315 -155 615 -224 970 -224 261 1 462 33 695 111 124 41 360
151 360 167 0 19 -55 154 -63 155 -4 1 -58 -23 -120 -53 -125 -61 -281 -117
-402 -147 -44 -10 -83 -19 -87 -19 -4 0 39 46 95 103 118 117 214 230 315 370
60 83 70 101 62 120 -5 12 -39 99 -75 192 -37 94 -69 173 -73 177 -6 6 -101
12 -519 34 l-103 6 0 439 0 439 506 0 506 0 -7 -82 c-6 -82 -28 -244 -41 -304
l-6 -31 84 -31 c45 -16 84 -29 86 -27 8 8 43 229 53 344 l12 131 363 0 364 0
-6 -62 c-17 -188 -62 -389 -120 -544 -19 -51 -34 -94 -34 -97 0 -3 37 -18 81
-32 94 -32 85 -38 130 85 42 117 74 241 101 389 32 182 32 520 0 702 -28 156
-61 279 -108 406 -249 670 -814 1182 -1499 1358 -71 18 -179 41 -239 50 -106
15 -394 27 -466 19z m60 -614 l0 -410 -122 0 c-111 0 -225 7 -450 26 -48 4
-78 11 -78 18 0 18 150 239 241 355 74 93 387 421 403 421 3 0 6 -184 6 -410z
m739 328 c203 -69 382 -163 554 -291 74 -55 317 -282 317 -296 0 -12 -556
-105 -571 -96 -4 3 -29 42 -55 87 -99 169 -278 399 -452 579 l-93 97 92 -20
c50 -11 144 -38 208 -60z m-1141 -54 c-141 -157 -292 -357 -382 -508 -47 -77
-76 -116 -87 -116 -21 0 -407 65 -494 83 l-59 13 74 78 c190 200 458 377 732
482 83 33 284 91 316 93 7 1 -38 -56 -100 -125z m771 -61 c170 -173 285 -311
403 -488 l67 -100 -32 -7 c-43 -9 -332 -27 -492 -30 l-130 -3 -3 398 c-2 296
1 397 9 397 7 0 87 -75 178 -167z m-1712 -667 c98 -19 228 -42 290 -52 l112
-17 -15 -36 c-119 -277 -187 -531 -214 -800 -5 -57 -10 -107 -10 -112 0 -5
-149 -9 -346 -9 -219 0 -352 -4 -365 -10 -18 -10 -19 -7 -19 41 0 118 46 354
100 519 61 184 246 528 277 516 7 -3 92 -21 190 -40z m3118 -23 c53 -79 147
-262 184 -356 67 -169 117 -386 135 -584 l6 -63 -364 0 -364 0 -7 78 c-23 274
-110 597 -231 859 -4 7 7 14 28 17 18 3 103 17 189 31 86 15 205 37 265 49 60
13 112 24 115 25 3 0 23 -25 44 -56z m-2350 -88 c83 -8 227 -17 320 -20 94 -3
189 -8 213 -11 l42 -5 0 -440 0 -439 -501 0 -501 0 6 38 c3 20 8 69 11 107 15
167 73 398 144 582 51 130 88 203 104 203 6 0 80 -7 162 -15z m1550 -67 c116
-254 184 -506 210 -780 l7 -68 -506 0 -506 0 0 439 0 439 93 6 c50 3 160 8
242 12 118 5 322 21 411 33 6 0 28 -36 49 -81z m-2501 -1028 c270 0 346 -3
346 -12 0 -7 5 -67 11 -133 20 -233 77 -478 163 -708 21 -55 36 -101 33 -103
-2 -2 -80 -18 -173 -34 -93 -16 -221 -40 -284 -53 -132 -28 -112 -38 -191 91
-105 170 -200 405 -244 598 -22 101 -45 261 -45 322 0 49 1 52 19 42 13 -6
146 -10 365 -10z m1526 -439 l0 -440 -42 -5 c-24 -3 -119 -8 -213 -11 -93 -3
-237 -12 -320 -20 -221 -22 -198 -28 -235 63 -101 240 -161 492 -185 780 l-6
72 500 0 501 0 0 -439z m592 -642 c103 -6 208 -14 233 -17 l45 -7 -46 -75
c-101 -162 -251 -346 -395 -485 -100 -96 -228 -205 -241 -205 -8 0 -12 793 -4
801 7 6 184 1 408 -12z m-592 -399 c0 -226 -3 -410 -6 -410 -21 0 -210 173
-332 305 -152 164 -358 459 -332 475 7 4 85 13 174 19 88 7 172 13 186 15 14
2 89 4 168 5 l142 1 0 -410z m-829 258 c114 -199 249 -376 413 -545 54 -57 94
-103 87 -103 -28 0 -182 44 -271 77 -279 104 -567 294 -759 499 l-64 68 64 14
c67 14 446 80 465 81 6 1 35 -41 65 -91z"/>
<path fill='#fff' d="M3255 1887 c32 -84 569 -1471 590 -1525 l17 -43 105 223 c58 123 109
234 114 247 10 24 22 13 259 -224 l250 -250 155 155 155 155 -247 247 c-136
136 -245 249 -243 251 3 2 114 53 247 113 133 60 237 112 230 115 -7 4 -338
124 -737 267 -399 143 -769 276 -822 296 l-97 35 24 -62z"/>
</g>
</svg>
