<?xml version="1.0" encoding="utf-8"?>
<!DOCTYPE svg PUBLIC "-//W3C//DTD SVG 1.1//EN" "http://www.w3.org/Graphics/SVG/1.1/DTD/svg11.dtd">
<svg version="1.1" xmlns="http://www.w3.org/2000/svg" xmlns:xlink="http://www.w3.org/1999/xlink" x="0px" y="0px" viewBox="0 0 256 256" enable-background="new 0 0 256 256" xml:space="preserve">
<metadata> Svg Vector Icons : http://www.onlinewebfonts.com/icon </metadata>
<g><g><path fill="#fff" d="M108.3,187H128v19.7h-19.7V187z"/><path fill="#fff" d="M128,187h19.7v19.7H128V187z"/><path fill="#fff" d="M206.7,69h19.7v19.7h-19.7V69z"/><path fill="#fff" d="M226.3,69H246v19.7h-19.7V69z"/><path fill="#fff" d="M226.3,49.3H246V69h-19.7V49.3z"/><path fill="#fff" d="M10,69h19.7v19.7H10V69z"/><path fill="#fff" d="M29.7,69h19.7v19.7H29.7V69z"/><path fill="#fff" d="M10,49.3h19.7V69H10V49.3z"/><path fill="#fff" d="M69,128h19.7v19.7H69V128L69,128z"/><path fill="#fff" d="M88.7,128h19.7v19.7H88.7V128L88.7,128z"/><path fill="#fff" d="M49.3,128H69v19.7H49.3V128L49.3,128z"/><path fill="#fff" d="M49.3,108.3H69V128H49.3V108.3z"/><path fill="#fff" d="M69,108.3h19.7V128H69V108.3z"/><path fill="#fff" d="M29.7,108.3h19.7V128H29.7V108.3z"/><path fill="#fff" d="M29.7,88.7h19.7v19.7H29.7V88.7z"/><path fill="#fff" d="M49.3,88.7H69v19.7H49.3V88.7z"/><path fill="#fff" d="M10,88.7h19.7v19.7H10V88.7z"/><path fill="#fff" d="M187,108.3h19.7V128H187V108.3z"/><path fill="#fff" d="M206.7,108.3h19.7V128h-19.7V108.3z"/><path fill="#fff" d="M167.3,108.3H187V128h-19.7V108.3z"/><path fill="#fff" d="M206.7,88.7h19.7v19.7h-19.7V88.7z"/><path fill="#fff" d="M226.3,88.7H246v19.7h-19.7V88.7z"/><path fill="#fff" d="M187,88.7h19.7v19.7H187V88.7z"/><path fill="#fff" d="M167.3,128H187v19.7h-19.7V128L167.3,128z"/><path fill="#fff" d="M187,128h19.7v19.7H187V128L187,128z"/><path fill="#fff" d="M147.7,128h19.7v19.7h-19.7V128L147.7,128z"/><path fill="#fff" d="M128,167.3h19.7V187H128V167.3z"/><path fill="#fff" d="M147.7,167.3h19.7V187h-19.7V167.3z"/><path fill="#fff" d="M88.7,167.3h19.7V187H88.7V167.3z"/><path fill="#fff" d="M108.3,167.3H128V187h-19.7V167.3z"/><path fill="#fff" d="M147.7,147.7h19.7v19.7h-19.7V147.7z"/><path fill="#fff" d="M167.3,147.7H187v19.7h-19.7V147.7z"/><path fill="#fff" d="M108.3,147.7H128v19.7h-19.7V147.7z"/><path fill="#fff" d="M128,147.7h19.7v19.7H128V147.7z"/><path fill="#fff" d="M69,147.7h19.7v19.7H69V147.7z"/><path fill="#fff" d="M88.7,147.7h19.7v19.7H88.7V147.7z"/></g></g>
</svg>