<?xml version="1.0" standalone="no"?>
<svg version="1.0" xmlns="http://www.w3.org/2000/svg"
 width="128.000000pt" height="128.000000pt" viewBox="0 0 128.000000 128.000000"
 preserveAspectRatio="xMidYMid meet">

<g transform="translate(0.000000,128.000000) scale(0.100000,-0.100000)"
fill="#fff" stroke="none">
<path d="M370 1204 c-301 -81 -410 -460 -199 -689 90 -98 198 -140 338 -133
75 3 96 9 164 42 l78 39 40 -39 c23 -23 39 -47 39 -62 0 -38 17 -62 124 -170
106 -109 138 -132 181 -132 35 0 85 50 85 85 0 41 -15 63 -124 173 -105 107
-138 132 -179 132 -15 0 -38 15 -61 41 l-38 40 39 77 c37 75 38 79 38 187 0
103 -2 114 -32 177 -90 191 -291 286 -493 232z m252 -82 c26 -11 70 -42 99
-69 252 -236 47 -656 -295 -602 -79 13 -142 47 -199 108 -63 67 -89 128 -95
217 -10 159 82 299 236 357 64 24 189 19 254 -11z"/>
<path d="M442 1082 c-57 -18 -132 -108 -132 -159 0 -10 -10 -23 -22 -28 -28
-12 -36 -56 -14 -75 10 -8 16 -29 16 -59 0 -58 33 -147 68 -184 40 -43 99 -70
138 -64 17 3 51 18 75 34 57 38 112 153 103 214 -6 33 -3 43 15 60 11 11 21
26 21 34 0 15 -27 45 -40 45 -5 0 -14 16 -19 36 -28 101 -128 171 -209 146z
m208 -286 c0 -9 -29 -21 -83 -34 l-83 -21 -87 21 c-54 14 -87 27 -87 35 0 10
37 13 170 13 138 0 170 -3 170 -14z m-266 -58 c57 -16 62 -23 26 -38 -39 -16
-80 -1 -80 30 0 23 0 24 54 8z m250 4 c8 -14 -23 -52 -42 -52 -9 1 -30 7 -47
14 l-30 13 50 16 c61 19 62 19 69 9z m-56 -68 c28 -4 52 -11 52 -16 0 -45 -97
-128 -149 -128 -40 0 -109 47 -131 90 -11 22 -20 42 -20 45 0 3 17 6 38 6 20
1 51 5 67 9 17 5 44 7 60 4 17 -2 54 -7 83 -10z"/>
</g>
</svg>
