<?xml version="1.0" standalone="no"?>
<svg version="1.0" xmlns="http://www.w3.org/2000/svg"
 width="8334.000000pt" height="8334.000000pt" viewBox="0 0 8334.000000 8334.000000"
 preserveAspectRatio="xMidYMid meet">

<g transform="translate(0.000000,8334.000000) scale(0.100000,-0.100000)"
fill="#fff" stroke="none">
<path d="M30285 74189 c-2334 -93 -4640 -547 -6805 -1341 -2719 -997 -5121
-2467 -7285 -4458 -271 -249 -986 -964 -1235 -1235 -2145 -2331 -3716 -4983
-4701 -7935 -684 -2051 -1054 -4102 -1130 -6265 -13 -373 -7 -1415 10 -1720
45 -785 99 -1348 197 -2035 610 -4300 2444 -8295 5301 -11550 554 -631 1229
-1309 1879 -1886 2352 -2089 5202 -3686 8194 -4593 1813 -549 3645 -853 5605
-931 325 -13 1288 -13 1620 0 1805 70 3500 335 5175 810 2366 671 4711 1803
6760 3265 785 560 1573 1203 2230 1818 l145 136 2222 -2222 2222 -2221 -122
-126 c-217 -221 -375 -441 -499 -691 -192 -389 -278 -759 -278 -1194 0 -625
203 -1206 587 -1680 51 -62 3104 -3121 8065 -8081 8569 -8567 8038 -8042 8298
-8204 298 -187 690 -326 1060 -376 173 -24 531 -24 694 0 553 81 1001 281
1401 627 159 138 2952 2941 3032 3044 311 398 497 844 558 1341 21 169 21 479
0 648 -61 501 -252 952 -571 1356 -102 130 -15973 15997 -16101 16098 -386
304 -797 481 -1303 559 -156 24 -575 24 -733 0 -286 -44 -555 -126 -792 -241
-282 -136 -490 -284 -723 -512 l-147 -143 -2281 2281 -2282 2281 97 126 c1774
2318 3055 4973 3785 7841 944 3712 906 7575 -110 11289 -669 2447 -1778 4796
-3208 6800 -931 1302 -1928 2449 -2991 3437 -2014 1871 -4383 3370 -6925 4379
-2301 913 -4658 1405 -7225 1505 -289 11 -1396 11 -1690 -1z m1440 -2339
c1186 -38 2106 -142 3195 -360 871 -174 1644 -380 2510 -669 751 -251 1208
-433 1941 -774 1456 -678 2929 -1594 4079 -2536 1033 -846 2030 -1838 2886
-2871 756 -912 1461 -1971 2104 -3160 308 -571 745 -1505 942 -2015 500 -1292
869 -2624 1107 -3995 122 -701 191 -1345 243 -2255 18 -311 18 -1688 0 -1990
-55 -946 -111 -1467 -237 -2211 -233 -1366 -596 -2688 -1096 -3989 -279 -726
-742 -1689 -1196 -2489 -913 -1605 -1885 -2879 -3208 -4201 -797 -797 -1593
-1480 -2383 -2044 -1510 -1079 -3200 -1971 -4817 -2544 -1279 -452 -2614 -785
-3930 -977 -926 -136 -2130 -204 -3171 -180 -1281 30 -2238 133 -3419 371
-1335 269 -2828 729 -3880 1197 -1445 642 -2633 1315 -3802 2154 -1606 1152
-3282 2836 -4438 4458 -804 1129 -1484 2332 -2090 3700 -429 968 -848 2274
-1116 3475 -343 1538 -484 2898 -466 4495 14 1215 100 2134 302 3250 231 1272
595 2562 1063 3765 272 700 719 1631 1147 2390 540 958 1146 1860 1764 2625
1160 1438 2602 2799 4016 3792 1185 832 2483 1549 3847 2124 847 357 2097 749
3168 992 1306 297 2419 435 3815 475 248 7 854 6 1120 -3z"/>
</g>
</svg>
